<?xml version="1.0" encoding="UTF-8" standalone="no"?>
<svg
   xmlns:dc="http://purl.org/dc/elements/1.1/"
   xmlns:cc="http://creativecommons.org/ns#"
   xmlns:rdf="http://www.w3.org/1999/02/22-rdf-syntax-ns#"
   xmlns:svg="http://www.w3.org/2000/svg"
   xmlns="http://www.w3.org/2000/svg"
   xmlns:sodipodi="http://sodipodi.sourceforge.net/DTD/sodipodi-0.dtd"
   xmlns:inkscape="http://www.inkscape.org/namespaces/inkscape"
   version="1.1"
   width="64"
   height="64"
   id="svg3438"
   sodipodi:docname="uk-essen-favicon.svg"
   inkscape:export-filename="/home/johannes/scms/koesterlab.github.io/public/uk-essen-logo.svg.png"
   inkscape:export-xdpi="59.746922"
   inkscape:export-ydpi="59.746922"
   inkscape:version="0.92+devel unknown">
  <metadata
     id="metadata17">
    <rdf:RDF>
      <cc:Work
         rdf:about="">
        <dc:format>image/svg+xml</dc:format>
        <dc:type
           rdf:resource="http://purl.org/dc/dcmitype/StillImage" />
        <dc:title></dc:title>
      </cc:Work>
    </rdf:RDF>
  </metadata>
  <sodipodi:namedview
     pagecolor="#ffffff"
     bordercolor="#666666"
     inkscape:document-rotation="0"
     borderopacity="1"
     objecttolerance="10"
     gridtolerance="10"
     guidetolerance="10"
     inkscape:pageopacity="0"
     inkscape:pageshadow="2"
     inkscape:window-width="1600"
     inkscape:window-height="845"
     id="namedview15"
     showgrid="false"
     fit-margin-top="0"
     fit-margin-left="0"
     fit-margin-right="0"
     fit-margin-bottom="0"
     inkscape:zoom="2.4090895"
     inkscape:cx="63.234341"
     inkscape:cy="0.53562214"
     inkscape:window-x="0"
     inkscape:window-y="27"
     inkscape:window-maximized="1"
     inkscape:current-layer="svg3438"
     inkscape:pagecheckerboard="false" />
  <defs
     id="defs3440" />
  <path
     inkscape:connector-curvature="0"
     style="fill:#ffffff;fill-opacity:1;fill-rule:nonzero;stroke:none;stroke-width:0.92772859"
     id="path44"
     d="M 30.727025,7.9269403 V 59.789122 l 3.658294,-0.0056 V 7.9266898 h -3.658294 z" />
  <path
     inkscape:connector-curvature="0"
     style="fill:none;stroke:#000000;stroke-width:0.52375299;stroke-linecap:butt;stroke-linejoin:miter;stroke-miterlimit:3.86400008;stroke-dasharray:none;stroke-opacity:1"
     id="path48"
     d="M 30.727025,7.9269403 V 59.789122 l 3.658294,-0.0056 V 7.9266898 h -3.658294 z" />
  <path
     inkscape:connector-curvature="0"
     style="fill:#009036;fill-opacity:1;fill-rule:nonzero;stroke:none;stroke-width:0.92772859"
     id="path52"
     d="m 11.187973,17.70596 -5.7403207,5.71133 v 7.798718 H 17.015268 V 23.41729 Z M 5.4476523,36.695405 v 7.798719 l 5.7403207,5.682338 5.827295,-5.71133 v -7.769727 z" />
  <path
     inkscape:connector-curvature="0"
     style="fill:#e2001a;fill-opacity:1;fill-rule:nonzero;stroke:none;stroke-width:0.92772859"
     id="path68"
     d="m 53.428619,17.70596 -5.769313,5.682338 v 7.82771 h 11.567616 v -7.769727 z m -5.769313,18.989445 v 7.798719 l 5.769313,5.682338 5.798303,-5.71133 v -7.769727 z" />
  <path
     inkscape:connector-curvature="0"
     style="fill:#00519e;fill-opacity:1;fill-rule:nonzero;stroke:none;stroke-width:0.92772859"
     id="path84"
     d="m 20.697191,48.176047 -5.711329,5.769312 5.711329,5.798304 h 7.76973 V 48.176047 Z m 15.887355,0 v 11.567616 h 7.82771 l 5.682338,-5.769312 -5.711329,-5.798304 z" />
  <path
     inkscape:connector-curvature="0"
     style="fill:#ffed00;fill-opacity:1;fill-rule:nonzero;stroke:none;stroke-width:0.92772859"
     id="path100"
     d="m 20.697191,7.9938017 -5.711329,5.7403203 5.711329,5.827296 h 7.76973 V 7.9938017 Z m 15.887355,0 V 19.532426 h 7.82771 l 5.682338,-5.740321 -5.711329,-5.7983033 z" />
  <path
     inkscape:connector-curvature="0"
     style="fill:none;stroke:#000000;stroke-width:0.52375299;stroke-linecap:butt;stroke-linejoin:miter;stroke-miterlimit:3.86400008;stroke-dasharray:none;stroke-opacity:1"
     id="path112"
     d="M 28.475409,7.986751 V 19.554515 H 20.70153 L 14.988102,13.748038 20.70153,7.986751 Z M 36.597293,19.53777 V 7.9886157 h 7.773874 l 5.713426,5.8064863 -5.684184,5.74533 -7.803116,-0.0028 z m 0,40.210402 V 48.177754 h 7.773874 l 5.713426,5.80914 -5.684184,5.758615 -7.803116,0.0028 z M 47.669224,36.691769 h 11.562439 v 7.768558 l -5.817109,5.713426 -5.74533,-5.678859 z m 0,-5.482125 h 11.562439 v -7.776537 l -5.817109,-5.713425 -5.74533,5.681521 z M 28.475409,48.177967 V 59.743069 H 20.70153 L 14.988102,53.936592 20.70153,48.177967 Z M 5.4486079,36.691769 17.008394,36.686202 v 7.773874 l -5.806479,5.713436 -5.7533071,-5.678869 v -7.803125 z m 0,-5.482125 11.5597861,-0.0028 V 23.41703 L 11.201915,17.719561 5.4486079,23.41703 v 7.792493 z" />
  <path
     inkscape:connector-curvature="0"
     style="fill:#000000;fill-opacity:1;fill-rule:evenodd;stroke:none;stroke-width:0.92772859"
     id="path124"
     d="m 38.652657,5.6944727 0.919889,0.5530005 c 0.279163,0.2259854 0.550338,0.6274321 0.550338,0.6274321 L 39.966024,6.242148 40.617392,6.1889892 C 40.441921,6.1385208 40.346216,6.1012261 40.181378,6.0241504 39.902224,5.8938787 39.737385,5.8141219 39.514062,5.5987683 39.312003,5.4020248 39.258826,5.4046874 39.101965,5.0085473 l -0.09837,0.486538 -0.350941,0.1993967 z" />
  <path
     inkscape:connector-curvature="0"
     style="fill:#000000;stroke:#000000;stroke-width:0.3695516;stroke-linecap:butt;stroke-linejoin:miter;stroke-miterlimit:3.86400008;stroke-dasharray:none;stroke-opacity:1"
     id="path132"
     d="m 36.410597,1.5866759 c -0.695509,0.014194 -1.473326,0.3057887 -2.116381,0.2609237 -3.509412,-0.2525741 -6.679052,1.4124391 -8.14662,4.7836007 -1.690898,3.8736477 0.686893,7.8040067 3.536969,10.2340057 0.279153,0.236618 0.592735,0.45918 0.927728,0.695797 l 0.08693,-3.971838 c -1.071433,-1.111317 -1.794821,-2.402474 -1.797474,-4.0588128 -0.0056,-1.090044 0.352314,-2.4181803 1.362602,-3.4789823 0.965088,-1.0102872 2.765828,-1.5684551 3.24705,-1.5365505 1.124602,0.069116 0.876824,0.5943864 1.275626,1.0436947 0.175471,0.1993967 0.814667,0.2843488 1.391593,0.3189067 1.260199,0.071806 3.169947,-0.055107 3.24705,-0.086928 0.0744,-0.029223 -1.031031,-2.9683883 -1.884448,-3.7978891 -0.32403,-0.3130529 -0.71337,-0.4143979 -1.130671,-0.4058814 z M 34.265225,16.372351 v 3.594948 c 1.690896,1.225631 2.614431,2.615295 2.319321,4.348728 -0.784302,4.620728 -10.622417,5.879127 -10.813839,12.060472 -0.08242,2.74372 1.105929,4.855091 4.870578,7.856701 l 0.08693,-4.464694 c -1.478206,-1.148537 -2.377193,-2.439193 -1.478568,-4.116795 1.45428,-2.717132 10.892712,-6.564803 10.610896,-12.089464 -0.180786,-3.557264 -2.761254,-5.273014 -5.595363,-7.189896 z m 0.08693,26.295307 0.08693,4.37772 c 0.922542,0.677956 1.442479,1.064188 1.652516,2.348313 0.409426,2.520397 -2.440204,3.741158 -4.000829,4.812592 -1.728127,1.188411 -6.030516,3.411712 -4.174779,7.218888 1.060793,2.177435 2.89674,2.459724 2.87016,2.377305 -0.17547,-0.555654 -1.618969,-1.469931 -1.53655,-3.681923 0.111661,-2.988316 6.919325,-4.650119 8.639473,-7.885693 0.470581,-0.885332 2.878343,-5.116628 -3.536966,-9.567202 z" />
</svg>
