<?xml version="1.0" encoding="UTF-8" standalone="no"?>
<svg xmlns:svg="http://www.w3.org/2000/svg" xmlns="http://www.w3.org/2000/svg" version="1.1" width="486.49084" height="67.472511" id="svg3438">
  <defs id="defs3440"/>
  <g transform="translate(-76.75,-372.90625)" id="layer1">
    <path d="m 104.28907,379.94446 0,55.90232 3.94328,-0.006 0,-55.89659 -3.94328,0 z" id="path44" style="fill:#ffffff;fill-opacity:1;fill-rule:nonzero;stroke:none"/>
    <path d="m 104.28907,379.94446 0,55.90232 3.94328,-0.006 0,-55.89659 -3.94328,0 z" id="path48" style="fill:none;stroke:#000000;stroke-width:0.5645541;stroke-linecap:butt;stroke-linejoin:miter;stroke-miterlimit:3.86400008;stroke-opacity:1;stroke-dasharray:none"/>
    <path d="m 83.227897,390.48528 -6.1875,6.15625 0,8.40625 12.46875,0 0,-8.40625 -6.28125,-6.15625 z m -6.1875,20.46875 0,8.40625 6.1875,6.125 6.28125,-6.15625 0,-8.375 -12.46875,0 z" id="path52" style="fill:#009036;fill-opacity:1;fill-rule:nonzero;stroke:none"/>
    <path d="m 128.75915,390.48528 -6.21875,6.125 0,8.4375 12.46875,0 0,-8.375 -6.25,-6.1875 z m -6.21875,20.46875 0,8.40625 6.21875,6.125 6.25,-6.15625 0,-8.375 -12.46875,0 z" id="path68" style="fill:#e2001a;fill-opacity:1;fill-rule:nonzero;stroke:none"/>
    <path d="m 93.477897,423.32903 -6.15625,6.21875 6.15625,6.25 8.375003,0 0,-12.46875 -8.375003,0 z m 17.125003,0 0,12.46875 8.4375,0 6.125,-6.21875 -6.15625,-6.25 -8.40625,0 z" id="path84" style="fill:#00519e;fill-opacity:1;fill-rule:nonzero;stroke:none"/>
    <path d="m 93.477897,380.01653 -6.15625,6.1875 6.15625,6.28125 8.375003,0 0,-12.46875 -8.375003,0 z m 17.125003,0 0,12.4375 8.4375,0 6.125,-6.1875 -6.15625,-6.25 -8.40625,0 z" id="path100" style="fill:#ffed00;fill-opacity:1;fill-rule:nonzero;stroke:none"/>
    <path d="m 101.86205,380.00893 0,12.46891 -8.379476,0 -6.158512,-6.25881 6.158512,-6.2101 8.379476,0 z m 8.75459,12.45086 0,-12.44885 8.37947,0 6.15851,6.25882 -6.12699,6.1929 -8.41099,-0.003 z m 0,43.34285 0,-12.47177 8.37947,0 6.15851,6.26168 -6.12699,6.20722 -8.41099,0.003 z m 11.93445,-24.85253 12.46317,0 0,8.37374 -6.27027,6.15851 -6.1929,-6.12125 0,-8.411 z m 0,-5.90919 12.46317,0 0,-8.38234 -6.27027,-6.15851 -6.1929,6.12412 0,8.41673 z m -20.68904,18.29018 0,12.46604 -8.379476,0 -6.158512,-6.25881 6.158512,-6.20723 8.379476,0 z m -24.820623,-12.38099 12.460311,-0.006 0,8.37947 -6.258813,6.15852 -6.201498,-6.12126 0,-8.411 z m 0,-5.90919 12.460311,-0.003 0,-8.39667 -6.258813,-6.14131 -6.201498,6.14131 0,8.39954 z" id="path112" style="fill:none;stroke:#000000;stroke-width:0.5645541;stroke-linecap:butt;stroke-linejoin:miter;stroke-miterlimit:3.86400008;stroke-opacity:1;stroke-dasharray:none"/>
    <path d="m 112.83212,377.53808 0.99155,0.59608 c 0.30091,0.24359 0.59321,0.67631 0.59321,0.67631 l -0.16908,-0.68205 0.70211,-0.0573 c -0.18914,-0.0544 -0.2923,-0.0946 -0.46998,-0.17768 -0.3009,-0.14042 -0.47858,-0.22639 -0.7193,-0.45852 -0.2178,-0.21207 -0.27512,-0.2092 -0.4442,-0.6362 l -0.10603,0.52444 -0.37828,0.21493 z" id="path124" style="fill:#000000;fill-opacity:1;fill-rule:evenodd;stroke:none"/>
    <path d="m 110.4154,373.11028 c -0.74969,0.0153 -1.5881,0.32961 -2.28125,0.28125 -3.7828,-0.27225 -7.19936,1.52247 -8.781253,5.15625 -1.822622,4.17541 0.740403,8.41195 3.812503,11.03125 0.3009,0.25505 0.63891,0.49495 1,0.75 l 0.0937,-4.28125 c -1.1549,-1.19789 -1.93464,-2.58963 -1.9375,-4.375 -0.006,-1.17496 0.37976,-2.60656 1.46875,-3.75 1.04027,-1.08899 2.98129,-1.69064 3.5,-1.65625 1.21221,0.0745 0.94513,0.64069 1.375,1.125 0.18914,0.21493 0.87813,0.3065 1.5,0.34375 1.35837,0.0774 3.41689,-0.0594 3.5,-0.0937 0.0802,-0.0315 -1.11135,-3.19963 -2.03125,-4.09375 -0.34927,-0.33744 -0.76894,-0.44668 -1.21875,-0.4375 z m -2.3125,15.9375 0,3.875 c 1.82262,1.32111 2.8181,2.81903 2.5,4.6875 -0.8454,4.98069 -11.449919,6.33712 -11.656253,13 -0.08884,2.95746 1.192083,5.23331 5.250003,8.46875 l 0.0937,-4.8125 c -1.59336,-1.23801 -2.56238,-2.62921 -1.59375,-4.4375 1.56757,-2.9288 11.74127,-7.07621 11.4375,-13.03125 -0.19487,-3.83438 -2.97636,-5.68379 -6.03125,-7.75 z m 0.0937,28.34375 0.0937,4.71875 c 0.99441,0.73077 1.55485,1.14709 1.78125,2.53125 0.44132,2.71674 -2.6303,4.0326 -4.3125,5.1875 -1.86275,1.28099 -6.500302,3.67749 -4.5,7.78125 1.14343,2.34706 3.1224,2.65134 3.09375,2.5625 -0.18914,-0.59894 -1.74509,-1.58444 -1.65625,-3.96875 0.12036,-3.22111 7.45835,-5.01237 9.3125,-8.5 0.50724,-0.9543 3.10257,-5.51522 -3.8125,-10.3125 z" id="path132" style="fill:#000000;stroke:#000000;stroke-width:0.3983402;stroke-linecap:butt;stroke-linejoin:miter;stroke-miterlimit:3.86400008;stroke-opacity:1;stroke-dasharray:none"/>
    <path d="m 559.04537,418.98982 0,-10.5116 c 0,-1.68506 -0.46425,-2.711 -2.01749,-2.711 -2.14932,0 -3.83725,2.41296 -3.83725,5.29018 l 0,7.93242 -4.19834,0 0,-13.19108 c -0.79094,-0.13182 -1.91719,-0.26365 -2.87148,-0.32956 l 0,-2.64223 c 2.08054,-0.26651 4.62533,-0.36682 6.84342,-0.3009 0,0.79668 -0.0659,2.0834 -0.23499,2.97465 l 0.0344,0 c 0.99442,-1.91719 2.90874,-3.27269 5.58536,-3.27269 3.70256,0 4.89185,2.34992 4.89185,5.22427 l 0,11.53754 -4.19547,0 z M 536.5019,405.3044 c -1.75384,0 -2.97466,1.28959 -3.20678,3.3386 l 6.04675,0 c 0.0688,-2.11492 -1.0546,-3.3386 -2.83997,-3.3386 m 6.90647,6.18144 -10.17916,0 c -0.0344,3.04056 1.49019,4.52789 4.52789,4.52789 1.55324,0 3.20678,-0.32956 4.75716,-0.99155 l 0.46425,3.20678 c -1.7825,0.7279 -3.93182,1.09185 -5.94931,1.09185 -5.18702,0 -8.09576,-2.61357 -8.09576,-8.39666 0,-5.02368 2.77691,-8.72623 7.70028,-8.72623 4.79155,0 6.90934,3.26983 6.90934,7.33633 0,0.56456 -0.0372,1.22368 -0.13469,1.95159 m -24.95415,7.83383 c -1.28959,0 -2.6107,-0.13183 -3.66817,-0.42987 l 0.29517,-3.53634 c 0.99442,0.42986 2.28115,0.65912 3.50482,0.65912 1.58763,0 2.6451,-0.69351 2.6451,-1.75097 0,-2.94314 -6.67722,-1.22368 -6.67722,-6.80904 0,-2.90875 2.21237,-5.25293 6.938,-5.25293 0.9629,0 2.08341,0.12895 3.01191,0.32669 l -0.19773,3.30709 c -0.89699,-0.26365 -1.95158,-0.42987 -2.97753,-0.42987 -1.65354,0 -2.41296,0.66199 -2.41296,1.68507 0,2.77692 6.77465,1.38989 6.77465,6.77465 0,3.27269 -2.87436,5.4564 -7.23604,5.4564 m -14.61077,0 c -1.29246,0 -2.6107,-0.13183 -3.67103,-0.42987 l 0.29803,-3.53634 c 0.99442,0.42986 2.28401,0.65912 3.50482,0.65912 1.58763,0 2.64223,-0.69351 2.64223,-1.75097 0,-2.94314 -6.67435,-1.22368 -6.67435,-6.80904 0,-2.90875 2.21237,-5.25293 6.94087,-5.25293 0.96003,0 2.08054,0.12895 3.00904,0.32669 l -0.20347,3.30709 c -0.88838,-0.26365 -1.94584,-0.42987 -2.97179,-0.42987 -1.65067,0 -2.41296,0.66199 -2.41296,1.68507 0,2.77692 6.77751,1.38989 6.77751,6.77465 0,3.27269 -2.87435,5.4564 -7.2389,5.4564 m -19.86658,-0.32985 0,-22.31278 12.13075,0 0,3.60225 -7.83211,0 0,5.48793 7.43663,0 0,3.50482 -7.43663,0 0,6.04674 7.83211,0 0,3.67104 -12.13075,0 z m -17.68487,0 0,-10.37977 c 0,-1.75385 -0.39547,-2.84283 -1.94871,-2.84283 -1.84842,0 -3.76561,2.14931 -3.76561,5.3561 l 0,7.8665 -4.16968,0 0,-10.41416 c 0,-1.61915 -0.32956,-2.80844 -1.94584,-2.80844 -1.95445,0 -3.76847,2.28114 -3.76847,5.3561 l 0,7.8665 -4.2012,0 0,-13.19108 c -0.79095,-0.13182 -1.9172,-0.26365 -2.87436,-0.32956 l 0,-2.64223 c 2.08341,-0.26651 4.65972,-0.36682 6.84056,-0.3009 0,0.79668 -0.063,2.01749 -0.19487,2.97465 l 0.0344,0.0344 c 0.98869,-2.01463 2.97179,-3.30708 5.41915,-3.30708 2.90587,0 4.12955,1.68793 4.52789,3.27269 0.75943,-1.58476 2.57918,-3.27269 5.35324,-3.27269 3.17526,0 4.92623,1.75384 4.92623,5.4564 l 0,11.30541 -4.23272,0 z m -31.13702,0.0318 c 0,-0.75943 0.0373,-2.01463 0.19774,-2.97466 l -0.0659,0 c -0.95716,1.9172 -2.87722,3.2727 -5.55097,3.2727 -3.73694,0 -4.92623,-2.34706 -4.92623,-5.22428 l 0,-8.29636 c -0.79095,-0.13183 -1.8828,-0.26365 -2.8457,-0.32956 l 0,-2.64223 c 2.18657,-0.26652 4.79728,-0.36682 7.07555,-0.30091 l 0,10.54599 c 0,1.68506 0.46426,2.711 2.0175,2.711 2.14932,0 3.83438,-2.41296 3.83438,-5.28732 l 0,-7.93528 4.19833,0 0,13.18822 c 0.79095,0.13182 1.9172,0.26364 2.87436,0.33242 l 0,2.64223 c -2.08341,0.26652 -4.6282,0.36395 -6.80904,0.29804 m -19.66714,-0.0318 -5.08958,-8.13302 0,8.13302 -4.23273,0 0,-20.89137 c -0.79381,-0.13182 -1.91432,-0.26365 -2.87435,-0.33243 l 0,-2.64222 c 2.11779,-0.26365 4.65972,-0.36396 7.10708,-0.29804 l 0,14.5781 4.79154,-6.84342 5.1555,0 -5.7831,7.50255 6.21296,8.92683 -5.28732,0 z M 398.00159,400.1148 c -1.42142,0 -2.61357,-1.12624 -2.61357,-2.54766 0,-1.41855 1.19215,-2.57345 2.61357,-2.57345 1.45867,0 2.64509,1.12051 2.64509,2.57345 0,1.38989 -1.18642,2.54766 -2.64509,2.54766 m -2.08341,18.87387 0,-13.18821 c -0.78808,-0.13183 -1.91719,-0.26652 -2.87435,-0.33243 l 0,-2.64223 c 2.08627,-0.26651 4.6282,-0.36395 7.07269,-0.29804 l 0,16.46091 -4.19834,0 z m -10.70847,10e-4 0,-10.51159 c 0,-1.68507 -0.46139,-2.71101 -2.01463,-2.71101 -2.15218,0 -3.83438,2.41297 -3.83438,5.29019 l 0,7.93241 -4.2012,0 0,-13.19108 c -0.79095,-0.13182 -1.91719,-0.26365 -2.87435,-0.32956 l 0,-2.64223 c 2.0834,-0.26651 4.63106,-0.36681 6.84342,-0.3009 0,0.79668 -0.0688,2.0834 -0.23212,2.97465 l 0.0344,0 c 0.99155,-1.91719 2.90587,-3.27269 5.58536,-3.27269 3.69969,0 4.88898,2.34992 4.88898,5.22428 l 0,11.53753 -4.19547,0 z M 366.56767,400.1148 c -1.42142,0 -2.6107,-1.12624 -2.6107,-2.54766 0,-1.41855 1.18928,-2.57345 2.6107,-2.57345 1.45294,0 2.64509,1.12051 2.64509,2.57345 0,1.38989 -1.19215,2.54766 -2.64509,2.54766 m -2.08341,18.87387 0,-13.18821 c -0.79381,-0.13183 -1.91719,-0.26652 -2.87435,-0.33243 l 0,-2.64223 c 2.08054,-0.26651 4.62533,-0.36395 7.07269,-0.29804 l 0,16.46091 -4.19834,0 z m -10.70732,10e-4 0,-20.89137 c -0.79668,-0.13182 -1.91719,-0.26364 -2.87722,-0.33242 l 0,-2.64223 c 2.11493,-0.26365 4.65972,-0.36395 7.10708,-0.29804 l 0,24.16406 -4.22986,0 z m -8.92941,0 -5.08672,-8.13302 0,8.13302 -4.23272,0 0,-20.89137 c -0.79095,-0.13182 -1.91719,-0.26364 -2.87436,-0.33242 l 0,-2.64223 c 2.11493,-0.26365 4.65973,-0.36395 7.10708,-0.29804 l 0,14.57811 4.79155,-6.84343 5.15549,0 -5.78309,7.50255 6.21582,8.92683 -5.29305,0 z m -21.11977,0.32985 c -1.28959,0 -2.6107,-0.13182 -3.66817,-0.42986 l 0.29804,-3.53635 c 0.99155,0.42987 2.27828,0.65913 3.50195,0.65913 1.58763,0 2.6451,-0.69352 2.6451,-1.75098 0,-2.94313 -6.67435,-1.22368 -6.67435,-6.80904 0,-2.90874 2.21236,-5.25293 6.94086,-5.25293 0.95717,0 2.08054,0.12896 3.00618,0.3267 l -0.19773,3.30708 c -0.89125,-0.26365 -1.95158,-0.42987 -2.97466,-0.42987 -1.65354,0 -2.41297,0.66199 -2.41297,1.68507 0,2.77692 6.77465,1.38989 6.77465,6.77465 0,3.27269 -2.87435,5.4564 -7.2389,5.4564 m -10.67466,0 c -3.63951,0 -4.76002,-1.32111 -4.76002,-5.1555 l 0,-8.33075 -2.84283,0 0,-3.2727 2.84283,0 0,-5.05519 4.19833,-1.12624 0,6.18143 3.99773,0 0,3.2727 -3.99773,0 0,7.20451 c 0,2.1178 0.49578,2.71101 1.94872,2.71101 0.69638,0 1.32398,-0.0659 1.88566,-0.23213 l 0.29518,3.34147 c -1.05747,0.26365 -2.4101,0.46139 -3.56787,0.46139 m -14.8429,-19.46909 c -1.2552,0 -2.28114,-1.02594 -2.28114,-2.28114 0,-1.28959 1.02594,-2.28115 2.28114,-2.28115 1.2552,0 2.28114,0.99156 2.28114,2.28115 0,1.2552 -1.02594,2.28114 -2.28114,2.28114 m -1.18929,11.7668 c -4.29577,0 -5.45353,1.15776 -5.45353,2.57918 0,1.08899 0.72503,1.8828 1.94871,1.8828 2.08054,0 3.50482,-1.9831 3.50482,-3.96621 l 0,-0.49577 z m -5.48792,-11.7668 c -1.25521,0 -2.28115,-1.02594 -2.28115,-2.28114 0,-1.28959 1.02594,-2.28115 2.28115,-2.28115 1.2552,0 2.28114,0.99156 2.28114,2.28115 0,1.2552 -1.02594,2.28114 -2.28114,2.28114 m 5.81748,19.17191 c 0,-0.96003 0.0344,-1.95158 0.16622,-2.81131 l -0.0344,-0.0315 c -0.79095,1.85128 -2.80844,3.14087 -5.2558,3.14087 -2.97466,0 -4.69124,-1.81975 -4.69124,-4.46485 0,-3.93181 3.90029,-5.98083 9.48565,-5.98083 l 0,-0.79381 c 0,-1.71946 -0.8282,-2.61357 -3.20678,-2.61357 -1.48733,0 -3.47043,0.49864 -4.79155,1.19215 l -0.49864,-3.47043 c 1.68793,-0.56169 3.86877,-0.99155 5.88627,-0.99155 5.3561,0 6.84056,2.11492 6.84056,5.72005 l 0,7.83211 c 0.79381,0.13183 1.91719,0.26365 2.87722,0.32956 l 0,2.6451 c -2.08341,0.26651 -4.6282,0.36395 -6.77752,0.29804 m -16.49299,0.29717 c -3.63665,0 -4.76002,-1.32111 -4.76002,-5.1555 l 0,-8.33075 -2.84283,0 0,-3.2727 2.84283,0 0,-5.05519 4.19833,-1.12624 0,6.18143 4.0006,0 0,3.2727 -4.0006,0 0,7.20451 c 0,2.1178 0.49578,2.71101 1.95158,2.71101 0.69065,0 1.31825,-0.0659 1.8828,-0.23213 l 0.29804,3.34147 c -1.05746,0.26365 -2.41583,0.46139 -3.57073,0.46139 m -13.02458,-19.20487 c -1.42142,0 -2.61357,-1.12624 -2.61357,-2.54766 0,-1.41855 1.19215,-2.57345 2.61357,-2.57345 1.4558,0 2.64509,1.12051 2.64509,2.57345 0,1.38989 -1.18929,2.54766 -2.64509,2.54766 m -2.08054,18.87388 0,-13.18822 c -0.79381,-0.13182 -1.91719,-0.26651 -2.87722,-0.33243 l 0,-2.64222 c 2.08341,-0.26652 4.6282,-0.36395 7.07269,-0.29804 l 0,16.46091 -4.19547,0 z m -12.72883,0.33099 c -1.28959,0 -2.6107,-0.13182 -3.66817,-0.42986 l 0.29804,-3.53635 c 0.99155,0.42987 2.28114,0.65913 3.50482,0.65913 1.58476,0 2.64223,-0.69352 2.64223,-1.75098 0,-2.94313 -6.67722,-1.22368 -6.67722,-6.80904 0,-2.90874 2.21523,-5.25293 6.94373,-5.25293 0.95717,0 2.08054,0.12896 3.00618,0.3267 l -0.19773,3.30708 c -0.89125,-0.26365 -1.95158,-0.42987 -2.97466,-0.42987 -1.65354,0 -2.41297,0.66199 -2.41297,1.68507 0,2.77692 6.77465,1.38989 6.77465,6.77465 0,3.27269 -2.87435,5.4564 -7.2389,5.4564 m -6.74084,-12.9237 c -3.14087,-0.66199 -4.66259,1.32111 -4.66259,5.8834 l 0,6.7116 -4.19833,0 0,-13.19108 c -0.79095,-0.13183 -1.91719,-0.26365 -2.87435,-0.32956 l 0,-2.6451 c 2.0834,-0.26365 4.62819,-0.36395 6.84342,-0.29804 0,0.85973 -0.1003,2.18371 -0.29804,3.33861 l 0.0659,0 c 0.79095,-2.08054 2.37857,-3.90029 5.32171,-3.63664 l -0.19774,4.16681 z m -21.35447,-1.09157 c -1.75098,0 -2.97466,1.28959 -3.20678,3.33861 l 6.04961,0 c 0.0659,-2.11493 -1.05746,-3.33861 -2.84283,-3.33861 m 6.90647,6.18144 -10.17916,0 c -0.0344,3.04057 1.49019,4.52789 4.53076,4.52789 1.55037,0 3.20391,-0.32956 4.76002,-0.99155 l 0.46139,3.20678 c -1.78537,0.72791 -3.93469,1.09186 -5.95218,1.09186 -5.18702,0 -8.09576,-2.61357 -8.09576,-8.39667 0,-5.02367 2.77405,-8.72623 7.70028,-8.72623 4.79155,0 6.90934,3.26983 6.90934,7.33634 0,0.56455 -0.0344,1.22368 -0.13469,1.95158 m -22.34258,7.50398 -4.29864,0 -6.08113,-16.42938 4.6282,0 2.6107,7.40511 c 0.39834,1.15777 0.79382,2.47888 1.09185,3.63665 l 0.0659,0 c 0.26365,-1.12338 0.59321,-2.38144 0.99155,-3.50482 l 2.64223,-7.53694 4.49637,0 -6.14705,16.42938 z M 193.79119,400.1148 c -1.42142,0 -2.61357,-1.12624 -2.61357,-2.54766 0,-1.41855 1.19215,-2.57345 2.61357,-2.57345 1.45294,0 2.64223,1.12051 2.64223,2.57345 0,1.38989 -1.18929,2.54766 -2.64223,2.54766 m -2.08341,18.87387 0,-13.18821 c -0.79094,-0.13183 -1.91719,-0.26652 -2.87435,-0.33243 l 0,-2.64223 c 2.08341,-0.26651 4.6282,-0.36395 7.07269,-0.29804 l 0,16.46091 -4.19834,0 z m -10.70933,10e-4 0,-10.51159 c 0,-1.68507 -0.46139,-2.71101 -2.01749,-2.71101 -2.14645,0 -3.83152,2.41297 -3.83152,5.29019 l 0,7.93241 -4.19834,0 0,-13.19108 c -0.79381,-0.13182 -1.92005,-0.26365 -2.87722,-0.32956 l 0,-2.64223 c 2.08341,-0.26651 4.6282,-0.36681 6.84343,-0.3009 0,0.79668 -0.0659,2.0834 -0.23213,2.97465 l 0.0344,0 c 0.98869,-1.91719 2.90588,-3.27269 5.58537,-3.27269 3.70255,0 4.89184,2.34992 4.89184,5.22428 l 0,11.53753 -4.19833,0 z m -25.81617,0.36314 c -7.04117,0 -8.62593,-3.83438 -8.62593,-8.09863 l 0,-14.5781 4.29863,0 0,14.31445 c 0,2.80844 0.92278,4.79155 4.62533,4.79155 3.30709,0 4.69411,-1.38989 4.69411,-5.18989 l 0,-13.91611 4.26425,0 0,13.65246 c 0,6.08114 -3.373,9.02427 -9.25639,9.02427" id="path272" style="fill:#000000;fill-opacity:1;fill-rule:nonzero;stroke:none"/>
  </g>
</svg>